<svg xmlns="http://www.w3.org/2000/svg" xml:space="preserve" id="svg5" width="24" height="24" version="1.1" viewBox="0 0 6.35 6.35"><defs id="defs2"><clipPath id="clipPath4-7" clipPathUnits="userSpaceOnUse"><path id="path4-5" d="M1.055 0H19v16.727H1.055Z" transform="scale(1.33333)"/></clipPath><clipPath id="clipPath3-3" clipPathUnits="userSpaceOnUse"><path id="path3-5" d="M0 0h19v19H0Z"/></clipPath><clipPath id="clipPath8-9" clipPathUnits="userSpaceOnUse"><path id="path8-1" d="M.539 0H19v17.266H.539Z" transform="scale(1.33333)"/></clipPath><clipPath id="clipPath7-2" clipPathUnits="userSpaceOnUse"><path id="path7-7" d="M0 0h19v19H0Z"/></clipPath><clipPath id="clipPath11-3" clipPathUnits="userSpaceOnUse"><path id="path11-6" d="M0 0h19v19H0Z"/></clipPath><clipPath id="clipPath15-2" clipPathUnits="userSpaceOnUse"><path id="path15-6" d="m-2.586 1.043 21.258-3.527 3.523 21.257L.938 22.301Z" transform="scale(1.33333)"/></clipPath><clipPath id="clipPath14-1" clipPathUnits="userSpaceOnUse"><path id="path14-8" d="M0 0h19v19H0Z"/></clipPath><clipPath id="clipPath18-2" clipPathUnits="userSpaceOnUse"><path id="path18-0" d="M0 0h19v19H0Z"/></clipPath><clipPath id="clipPath1" clipPathUnits="userSpaceOnUse"/><clipPath id="clipPath13" clipPathUnits="userSpaceOnUse"/><clipPath id="clipPath18" clipPathUnits="userSpaceOnUse"/><clipPath id="clipPath22" clipPathUnits="userSpaceOnUse"/><clipPath id="clipPath25" clipPathUnits="userSpaceOnUse"/><linearGradient id="linearGradient14066" x1="54.786" x2="52.797" y1="82.086" y2=".909" gradientTransform="matrix(.06468 0 0 .06468 -.059 -.059)" gradientUnits="userSpaceOnUse" spreadMethod="pad"><stop id="stop14062" offset="0" style="stop-opacity:1;stop-color:#069"/><stop id="stop14064" offset="1" style="stop-opacity:1;stop-color:#00a0d7"/></linearGradient><style id="style125">.cls-2{fill:#02679a}.cls-6{fill:#002b44}.st0{display:none}</style></defs><g id="layer1"><path id="path14068" d="M3.175.265C.529.265.265 1.587.265 3.175c0 2.117.793 2.91 2.91 2.91s2.91-.793 2.91-2.91c0-1.588-.264-2.91-2.91-2.91z" style="fill:url(#linearGradient14066);stroke:none;stroke-width:.352778"/><g id="g29" transform="translate(-.122 -.108)"><circle id="circle368" cx="1.797" cy="1.736" r=".197" class="cls-2" style="stroke-width:.461734"/><circle id="circle370" cx="2.424" cy="1.736" r=".197" class="cls-2" style="stroke-width:.461734"/><circle id="circle372" cx="1.169" cy="1.736" r=".197" class="cls-2" style="stroke-width:.461734"/></g><g id="g30" transform="translate(.143 -.279)"><path id="path380" d="M4.452 4.832c-.102-.059-.16.004-.17.015-.01.01-.218.269-.184-.224 0 0-.073.08-.078.269-.004.189.117.2.117.2s.054.014.16-.102c.107-.115.114-.11.114-.11s.03-.021.035.032c.005.054.015.215-.148.303-.162.088-.241-.127-.241-.127s.02.322.275.28c.254-.043.244-.338.244-.338a.238.238 0 0 0-.124-.198Z" class="cls-6" style="fill:#002a44;fill-opacity:1;stroke-width:.461734"/><ellipse id="ellipse382" cx="3.542" cy="5.54" class="cls-6" rx=".115" ry=".087" style="fill:#002a44;fill-opacity:1;stroke-width:.461734" transform="rotate(-12.08)"/><path id="path384" d="M4.754 4.864a.088.088 0 0 0-.174.013.08.08 0 0 0 .003.02s.052.205.328.21c-.001.001-.16-.113-.157-.243z" class="cls-6" style="fill:#002a44;fill-opacity:1;stroke-width:.461734"/><path id="path386" d="M5.242 4.746s-.054-.014-.16.101c-.107.115-.114.11-.114.11s-.03.022-.035-.032c-.004-.053-.015-.215.148-.302.163-.088.241.126.241.126s-.02-.322-.274-.279c-.255.043-.245.339-.245.339a.238.238 0 0 0 .122.197c.102.06.161-.004.171-.015.01-.01.217-.269.184.224 0 0 .073-.08.077-.269.005-.189-.115-.2-.115-.2Z" class="cls-6" style="fill:#002a44;fill-opacity:1;stroke-width:.461734"/></g><g id="g28" style="fill:#002a44;fill-opacity:1;stroke-width:1.23588" transform="matrix(.80914 0 0 .80914 .871 .865)"><text xml:space="preserve" id="text455" x="-.2" y="3.301" style="font-style:normal;font-weight:400;font-size:2.26641px;line-height:1.25;font-family:sans-serif;fill:#002a44;fill-opacity:1;stroke:none;stroke-width:.694291" transform="scale(.9262 1.07968)"><tspan id="tspan453" x="-.2" y="3.301" style="font-style:normal;font-variant:normal;font-weight:700;font-stretch:normal;font-size:2.26641px;font-family:lato;-inkscape-font-specification:&quot;lato Bold&quot;;fill:#002a44;fill-opacity:1;stroke-width:.694291">&lt;/&gt;</tspan></text><rect id="rect1136" width="2.125" height=".362" x="3.595" y="2.525" ry=".181" style="fill:#002a44;fill-opacity:1;stroke-width:.00829127"/><rect id="rect2092" width="1.053" height=".362" x="3.595" y="1.903" ry=".181" style="fill:#002a44;fill-opacity:1;stroke-width:.00583572"/><rect id="rect2123" width="1.631" height=".362" x="3.595" y="3.162" ry=".181" style="fill:#002a44;fill-opacity:1;stroke-width:.00726358"/></g></g></svg>